<?xml version="1.0" standalone="no"?>
<!DOCTYPE svg PUBLIC "-//W3C//DTD SVG 20010904//EN"
 "http://www.w3.org/TR/2001/REC-SVG-20010904/DTD/svg10.dtd">
<svg version="1.0" xmlns="http://www.w3.org/2000/svg"
 width="2046.000000pt" height="2046.000000pt" viewBox="0 0 2046.000000 2046.000000"
 preserveAspectRatio="xMidYMid meet">
<metadata>
Created by potrace 1.16, written by Peter Selinger 2001-2019
</metadata>
<g transform="translate(0.000000,2046.000000) scale(0.100000,-0.100000)"
fill="#000000" stroke="none">
<path d="M3405 11330 c0 -2626 1 -3701 2 -2387 2 1313 2 3461 0 4775 -1 1313
-2 238 -2 -2388z"/>
<path d="M3680 11330 l0 -4770 290 0 290 0 0 4480 0 4480 3040 0 3040 0 0 290
0 290 -3330 0 -3330 0 0 -4770z"/>
<path d="M13483 14416 c-373 -71 -594 -317 -643 -718 -8 -66 -10 -407 -7
-1188 3 -978 5 -1102 20 -1162 70 -281 205 -460 423 -559 127 -58 218 -74 424
-74 159 0 198 4 275 23 332 83 536 329 585 703 13 101 13 2172 0 2264 -54 377
-245 608 -575 696 -103 27 -390 36 -502 15z m365 -544 c50 -27 94 -84 119
-155 17 -49 18 -117 18 -1152 l0 -1100 -23 -58 c-26 -63 -73 -115 -130 -144
-54 -26 -212 -26 -266 1 -58 29 -101 78 -128 143 l-23 58 -3 1065 c-2 768 0
1084 8 1132 13 73 58 159 101 190 49 37 100 48 194 45 69 -3 100 -9 133 -25z"/>
<path d="M5390 12569 l0 -1820 553 3 552 4 99 27 c232 63 383 180 476 372 73
149 82 209 87 555 6 403 -8 511 -93 687 -45 96 -156 211 -252 262 l-64 33 51
29 c84 48 164 139 215 243 24 50 51 122 60 159 38 159 43 492 11 679 -41 231
-151 397 -324 486 -178 93 -255 102 -873 102 l-498 0 0 -1821z m1003 1258 c89
-53 121 -136 132 -344 14 -265 -19 -422 -106 -496 -61 -53 -122 -68 -296 -74
l-153 -6 0 477 0 478 188 -4 c184 -3 188 -3 235 -31z m-11 -1466 c56 -18 119
-71 145 -121 43 -83 53 -165 53 -436 0 -138 -4 -275 -10 -303 -18 -97 -57
-153 -135 -195 -37 -19 -58 -21 -252 -24 l-213 -3 0 551 0 552 188 -5 c107 -2
203 -9 224 -16z"/>
<path d="M8040 12570 l0 -1820 780 0 780 0 0 265 0 265 -490 0 -490 0 0 525 0
525 390 0 390 0 0 265 0 265 -390 0 -390 0 0 500 0 500 490 0 490 0 0 265 0
265 -780 0 -780 0 0 -1820z"/>
<path d="M10320 14125 l0 -265 300 0 300 0 0 -1555 0 -1555 290 0 290 0 0
1555 0 1555 300 0 300 0 0 265 0 265 -890 0 -890 0 0 -265z"/>
<path d="M15470 12570 l0 -1820 260 0 260 0 2 1287 3 1287 344 -1274 c189
-701 346 -1281 349 -1287 3 -10 73 -13 303 -13 l299 0 0 1820 0 1820 -260 0
-260 0 -2 -1062 -3 -1063 -286 1060 -286 1060 -361 3 -362 2 0 -1820z"/>
<path d="M10062 10230 c-253 -36 -443 -152 -561 -346 -38 -63 -77 -164 -104
-274 -20 -83 -21 -108 -24 -1165 -3 -696 0 -1114 6 -1175 15 -141 44 -243 102
-358 103 -205 262 -322 513 -379 111 -25 365 -22 486 5 293 66 485 259 567
567 26 97 27 109 31 458 l4 357 -275 0 -276 0 -3 -332 c-3 -312 -5 -336 -24
-378 -49 -105 -115 -150 -231 -158 -176 -11 -282 70 -312 242 -7 39 -11 408
-11 1085 0 1094 1 1105 49 1199 56 110 210 161 347 114 73 -25 109 -58 146
-132 l33 -64 3 -268 3 -268 276 0 275 0 -4 293 c-5 276 -6 297 -31 392 -83
313 -278 506 -579 571 -87 18 -317 27 -406 14z"/>
<path d="M5390 8374 l0 -1826 533 5 c544 5 593 9 717 49 161 52 310 167 389
300 47 81 88 208 106 324 22 146 22 2151 0 2297 -31 204 -95 339 -219 462 -92
91 -180 140 -312 175 -130 34 -236 40 -736 40 l-478 0 0 -1826z m1032 1263
c63 -31 96 -68 124 -142 18 -48 19 -91 19 -1125 l0 -1075 -27 -57 c-31 -68
-66 -103 -128 -131 -39 -18 -70 -21 -242 -25 l-198 -4 0 1297 0 1297 198 -4
c192 -3 198 -4 254 -31z"/>
<path d="M7510 8375 l0 -1825 780 0 780 0 0 265 0 265 -490 0 -490 0 0 530 0
530 390 0 390 0 0 265 0 265 -390 0 -390 0 0 500 0 500 490 0 490 0 0 265 0
265 -780 0 -780 0 0 -1825z"/>
<path d="M11420 8375 l0 -1825 290 0 290 0 0 559 0 559 86 162 87 162 206
-539 c114 -296 238 -620 276 -720 l70 -183 299 0 c279 0 298 1 293 18 -2 9
-181 465 -397 1011 l-393 995 53 105 c142 285 740 1510 740 1515 0 3 -131 5
-291 4 l-290 -3 -367 -777 -367 -777 -3 779 -2 780 -290 0 -290 0 0 -1825z"/>
<path d="M13570 8375 l0 -1825 785 0 785 0 0 265 0 265 -495 0 -495 0 0 530 0
530 395 0 395 0 -2 263 -3 262 -392 3 -393 2 0 500 0 500 495 0 495 0 0 265 0
265 -785 0 -785 0 0 -1825z"/>
<path d="M15480 8375 l0 -1825 260 0 260 0 2 1289 3 1290 319 -1182 c176 -650
333 -1230 349 -1289 l30 -108 298 0 299 0 0 1825 0 1825 -260 0 -260 0 -2
-1065 -3 -1064 -274 1017 c-151 559 -280 1038 -288 1065 l-14 47 -359 0 -360
0 0 -1825z"/>
<path d="M8033 5430 c-71 -10 -137 -51 -167 -103 -42 -71 -48 -145 -44 -514
l3 -339 30 -59 c38 -75 88 -111 173 -126 119 -21 239 22 286 104 29 48 45 143
46 255 l0 72 -90 0 -90 0 0 -97 c0 -110 -20 -162 -62 -164 -47 -3 -64 3 -85
27 -23 25 -23 26 -23 373 0 337 1 349 21 375 21 26 65 35 104 20 29 -12 45
-60 45 -139 l0 -75 92 0 91 0 -6 98 c-8 117 -27 178 -69 221 -49 50 -71 59
-183 75 -11 2 -43 0 -72 -4z"/>
<path d="M10108 5428 c-68 -9 -102 -25 -145 -70 -63 -66 -67 -87 -71 -457 -2
-222 0 -356 8 -401 24 -145 110 -214 264 -214 130 1 207 47 250 151 18 43 20
77 24 360 4 324 -4 446 -34 506 -21 41 -62 85 -96 103 -39 20 -134 31 -200 22z
m112 -188 c11 -11 22 -30 25 -42 3 -13 5 -175 3 -360 -3 -334 -3 -338 -25
-360 -33 -33 -89 -30 -119 6 l-24 27 0 348 c0 337 1 349 21 375 26 33 88 37
119 6z"/>
<path d="M10795 5432 c-143 -16 -213 -94 -223 -249 -9 -156 18 -213 188 -388
96 -99 131 -142 139 -171 28 -101 -1 -166 -74 -166 -60 0 -85 35 -85 118 l0
64 -90 0 -90 0 0 -43 c0 -123 42 -228 109 -272 82 -55 235 -54 322 1 106 67
137 270 62 418 -16 31 -71 97 -143 171 -147 150 -170 193 -150 280 11 48 32
65 82 65 47 0 69 -29 76 -101 l5 -49 83 0 84 0 0 58 c0 156 -81 251 -225 264
-22 2 -53 2 -70 0z"/>
<path d="M13372 5429 c-81 -10 -140 -52 -177 -124 l-30 -59 0 -385 c0 -385 0
-386 24 -439 44 -97 112 -136 241 -136 62 -1 85 4 130 26 101 50 130 114 130
289 l0 119 -85 0 -85 0 0 -89 c0 -108 -13 -149 -52 -165 -39 -17 -74 -9 -98
22 -19 24 -20 41 -20 372 0 336 1 348 21 374 15 19 30 26 55 26 72 0 94 -36
94 -151 l0 -69 86 0 86 0 -4 113 c-3 83 -9 121 -22 147 -23 44 -63 88 -98 106
-38 20 -133 31 -196 23z"/>
<path d="M14043 5429 c-97 -13 -165 -69 -197 -163 -23 -67 -24 -736 -1 -812
33 -112 119 -169 255 -169 97 0 159 23 205 78 62 72 65 98 65 498 0 387 -3
416 -56 486 -48 63 -159 97 -271 82z m114 -189 c31 -28 35 -84 31 -425 -3
-325 -5 -335 -58 -353 -38 -14 -85 1 -103 32 -13 23 -24 570 -12 663 9 70 35
103 84 103 23 0 45 -7 58 -20z"/>
<path d="M15452 5428 c-96 -14 -155 -62 -187 -150 -19 -49 -20 -80 -20 -418 0
-281 3 -374 14 -405 38 -115 120 -170 251 -169 129 0 198 40 240 136 18 42 24
77 28 176 l5 122 -92 0 -91 0 0 -104 c0 -95 -2 -107 -22 -130 -38 -42 -100
-39 -128 7 -19 30 -20 51 -20 365 0 397 1 402 95 402 56 0 75 -35 75 -136 l0
-84 90 0 90 0 0 69 c0 159 -39 248 -130 293 -62 30 -121 38 -198 26z"/>
<path d="M18078 5428 c-32 -4 -70 -14 -86 -22 -41 -21 -99 -89 -113 -133 -17
-51 -25 -697 -10 -779 17 -88 55 -143 125 -178 50 -26 68 -30 139 -30 134 1
216 52 252 157 16 45 19 96 23 360 4 319 -4 440 -34 500 -21 41 -62 85 -96
103 -39 20 -134 31 -200 22z m112 -188 c11 -11 22 -30 25 -42 3 -13 5 -175 3
-360 -3 -334 -3 -338 -25 -360 -33 -33 -89 -30 -119 6 l-24 27 0 348 c0 337 1
349 21 375 26 33 88 37 119 6z"/>
<path d="M2830 4861 l0 -561 90 0 90 0 0 210 0 210 83 0 c65 0 92 5 132 24 94
44 123 104 132 268 11 211 -23 321 -115 375 -46 27 -51 28 -229 31 l-183 4 0
-561z m319 363 c19 -24 21 -40 21 -155 0 -118 -2 -130 -22 -154 -18 -20 -35
-27 -80 -32 l-58 -6 0 187 0 186 59 0 c52 0 62 -3 80 -26z"/>
<path d="M3480 4860 l0 -560 90 0 90 0 0 225 0 225 45 0 c106 0 125 -38 125
-244 0 -79 3 -158 6 -175 l7 -31 93 0 93 0 -4 53 c-3 28 -7 117 -9 197 -6 166
-21 225 -69 267 l-32 28 35 35 c48 48 60 96 60 236 0 142 -10 183 -57 235 -52
58 -101 69 -305 69 l-168 0 0 -560z m310 380 c27 -14 40 -64 40 -150 0 -131
-28 -170 -125 -170 l-45 0 0 165 0 165 56 0 c30 0 64 -4 74 -10z"/>
<path d="M4170 4860 l0 -560 245 0 245 0 0 80 0 80 -150 0 -150 0 0 160 0 160
120 0 120 0 0 85 0 85 -120 0 -120 0 0 150 0 150 150 0 150 0 0 85 0 85 -245
0 -245 0 0 -560z"/>
<path d="M4810 4860 l0 -560 95 0 95 0 0 230 0 230 110 0 110 0 0 85 0 85
-110 0 -110 0 0 160 0 160 140 0 140 0 0 85 0 85 -235 0 -235 0 0 -560z"/>
<path d="M5520 5413 c0 -8 -169 -1073 -174 -1095 -4 -16 5 -18 83 -18 l88 0
13 100 13 100 103 0 102 0 6 -27 c3 -16 10 -61 16 -100 l12 -73 94 0 94 0 -6
28 c-2 15 -40 252 -84 527 -44 275 -82 515 -85 533 l-6 32 -134 0 c-74 0 -135
-3 -135 -7z m165 -481 c19 -128 35 -241 35 -252 0 -18 -7 -20 -76 -20 l-76 0
5 28 c2 15 20 129 38 254 18 125 34 226 36 224 1 -1 18 -107 38 -234z"/>
<path d="M6090 4860 l0 -562 198 4 c213 3 228 6 286 64 54 55 60 77 63 234 3
141 3 146 -24 200 -16 30 -42 64 -58 75 l-30 20 32 28 c46 41 67 111 66 230
-1 84 -4 104 -28 152 -20 42 -37 61 -73 83 -46 27 -50 27 -239 30 l-193 4 0
-562z m320 370 c27 -27 33 -58 28 -141 -3 -63 -7 -74 -31 -95 -22 -18 -40 -24
-78 -24 l-49 0 0 140 0 140 55 0 c41 0 60 -5 75 -20z m12 -458 c36 -36 50
-178 25 -252 -14 -40 -53 -58 -124 -59 l-43 -1 0 171 0 172 61 -6 c42 -4 68
-12 81 -25z"/>
<path d="M6790 4860 l0 -560 95 0 95 0 0 225 0 225 40 0 c102 0 120 -36 120
-240 0 -81 3 -162 6 -179 l7 -31 99 0 c91 0 98 1 90 18 -5 9 -12 98 -15 197
-3 99 -11 198 -17 220 -7 22 -29 56 -49 75 l-36 36 36 35 c51 50 62 100 57
260 -4 145 -13 174 -66 224 -46 43 -108 55 -294 55 l-168 0 0 -560z m310 380
c10 -5 23 -24 29 -41 14 -41 14 -177 0 -218 -14 -38 -54 -61 -109 -61 l-40 0
0 165 0 165 51 0 c28 0 59 -4 69 -10z"/>
<path d="M7480 4860 l0 -560 95 0 95 0 0 560 0 560 -95 0 -95 0 0 -560z"/>
<path d="M8635 5408 c-4 -14 -175 -1087 -175 -1100 0 -5 38 -8 85 -8 47 0 85
3 85 8 0 10 19 131 26 165 l6 27 102 0 103 0 13 -100 12 -100 94 0 c69 0 94 3
94 13 0 6 -40 257 -88 557 l-87 545 -133 3 c-101 2 -133 0 -137 -10z m199
-710 l6 -38 -78 0 -79 0 33 228 c19 125 37 238 40 252 5 16 18 -52 40 -190 18
-118 35 -232 38 -252z"/>
<path d="M9200 4859 l0 -561 198 4 199 3 48 30 c35 21 56 45 74 80 l26 49 3
375 c3 328 1 381 -14 427 -20 64 -82 127 -140 143 -22 6 -119 11 -216 11
l-178 0 0 -561z m332 377 c34 -26 38 -64 38 -377 0 -355 -3 -370 -67 -388 -21
-6 -55 -11 -75 -11 l-38 0 0 395 0 395 63 0 c35 0 69 -6 79 -14z"/>
<path d="M11540 4860 l0 -560 183 0 c180 0 184 0 238 28 70 35 105 90 119 187
13 91 13 599 0 689 -12 83 -41 137 -90 171 -57 39 -92 45 -277 45 l-173 0 0
-560z m315 384 c41 -16 45 -47 45 -393 0 -328 0 -330 -22 -356 -19 -21 -35
-27 -90 -32 l-68 -6 0 397 0 396 59 0 c33 0 67 -3 76 -6z"/>
<path d="M12240 4860 l0 -560 245 0 245 0 0 80 0 80 -155 0 -155 0 0 160 0
160 125 0 125 0 0 85 0 85 -125 0 -125 0 0 150 0 150 155 0 155 0 0 85 0 85
-245 0 -245 0 0 -560z"/>
<path d="M14520 4860 l0 -560 85 0 85 0 2 380 3 381 89 -333 c50 -183 96 -354
104 -380 l14 -48 94 0 94 0 0 560 0 560 -80 0 -80 0 -2 -316 -3 -315 -85 315
-84 316 -118 0 -118 0 0 -560z"/>
<path d="M15930 4860 l0 -560 90 0 90 0 0 226 0 226 56 -4 c99 -8 113 -42 114
-275 0 -78 3 -148 6 -157 5 -13 24 -16 101 -16 87 0 94 2 87 18 -4 9 -11 103
-15 207 -4 105 -10 203 -14 219 -4 15 -24 45 -44 66 l-37 39 33 32 c50 49 66
115 61 263 -3 99 -8 128 -25 161 -51 97 -103 115 -333 115 l-170 0 0 -560z
m324 357 c18 -24 21 -43 21 -126 0 -139 -22 -171 -120 -171 l-45 0 0 165 0
166 61 -3 c55 -3 64 -6 83 -31z"/>
<path d="M16620 4860 l0 -560 245 0 245 0 0 80 0 80 -155 0 -155 0 0 160 0
160 125 0 125 0 0 85 0 85 -125 0 -125 0 0 150 0 150 155 0 155 0 0 85 0 85
-245 0 -245 0 0 -560z"/>
<path d="M17210 5335 l0 -85 90 0 90 0 0 -475 0 -475 95 0 95 0 0 475 0 475
90 0 90 0 0 85 0 85 -275 0 -275 0 0 -85z"/>
</g>
</svg>
