<?xml version="1.0" standalone="no"?>
<!DOCTYPE svg PUBLIC "-//W3C//DTD SVG 20010904//EN"
 "http://www.w3.org/TR/2001/REC-SVG-20010904/DTD/svg10.dtd">
<svg version="1.0" xmlns="http://www.w3.org/2000/svg"
 width="800.000000pt" height="189.000000pt" viewBox="0 0 800.000000 189.000000"
 preserveAspectRatio="xMidYMid meet">
<metadata>
Created by potrace 1.16, written by Peter Selinger 2001-2019
</metadata>
<g transform="translate(0.000000,189.000000) scale(0.100000,-0.100000)"
fill="#000000" stroke="none">
<path d="M808 1830 c-186 -34 -346 -117 -479 -249 -342 -340 -343 -905 -2
-1239 244 -240 619 -317 942 -196 200 75 384 248 476 447 106 229 102 535 -10
758 -117 234 -312 396 -560 464 -69 19 -296 28 -367 15z m237 -20 c164 -19
328 -89 455 -194 67 -55 162 -168 151 -179 -4 -4 14 -51 40 -105 67 -135 89
-228 89 -371 0 -142 -23 -248 -80 -364 -84 -174 -203 -294 -375 -377 -116 -56
-202 -79 -323 -87 -176 -11 -380 44 -513 138 -17 12 -29 15 -36 8 -13 -13
-121 87 -185 170 -210 277 -226 663 -41 960 140 224 377 373 638 401 39 4 75
8 80 9 6 0 50 -4 100 -9z"/>
<path d="M815 1725 c-302 -57 -538 -276 -616 -571 -41 -155 -22 -392 41 -504
11 -19 25 -47 31 -62 12 -31 25 -34 52 -14 17 13 17 15 -3 48 -64 108 -98 285
-80 416 23 179 80 292 215 427 73 74 106 98 175 132 118 58 194 76 320 77 130
1 218 -20 337 -80 82 -41 88 -43 106 -27 18 17 18 18 0 31 -150 114 -380 164
-578 127z"/>
<path d="M584 1497 c-119 -88 -201 -204 -246 -347 -18 -61 -23 -98 -22 -195 0
-108 3 -129 30 -205 38 -108 86 -181 172 -262 83 -77 135 -107 160 -92 15 10
17 31 20 153 l3 141 249 0 250 0 0 -144 c0 -152 1 -156 49 -156 30 0 148 98
197 164 95 126 134 242 134 402 0 190 -67 360 -190 483 -84 84 -129 109 -164
93 l-26 -12 0 -140 0 -140 -250 0 -250 0 0 138 c0 183 -12 196 -116 119z m101
3 c3 -6 -5 -14 -19 -20 l-26 -10 0 -138 c0 -105 3 -143 15 -158 13 -18 14 -18
20 11 l6 30 270 -3 269 -3 0 138 c0 76 4 144 9 152 14 22 51 6 111 -48 59 -52
127 -140 107 -137 -21 2 -18 -13 17 -87 63 -134 79 -259 50 -390 -31 -135 -97
-247 -189 -319 -29 -24 -54 -50 -54 -59 -1 -20 -37 -53 -45 -41 -3 5 -6 77 -7
160 0 112 -4 154 -14 162 -9 8 -94 10 -270 8 -317 -4 -295 9 -295 -172 0 -66
-4 -127 -9 -135 -12 -19 -49 8 -129 93 -106 114 -162 259 -162 421 0 111 20
198 66 291 69 140 248 303 279 254z"/>
<path d="M561 1318 c-37 -40 -82 -123 -107 -198 -25 -74 -25 -243 -1 -320 19
-60 75 -165 84 -156 3 3 13 -4 22 -15 15 -19 16 5 13 320 -2 292 0 345 13 371
20 39 13 38 -24 -2z m-12 -360 l-1 -273 -33 70 c-43 88 -58 176 -45 266 11 77
59 209 75 209 3 0 5 -123 4 -272z"/>
<path d="M1315 960 l0 -376 22 31 c13 16 41 66 63 110 89 178 74 370 -43 547
l-42 64 0 -376z m65 223 c67 -150 65 -317 -4 -451 l-25 -47 -1 273 c0 149 2
272 5 272 2 0 14 -21 25 -47z"/>
<path d="M683 1112 c-12 -8 -22 -286 -10 -298 4 -4 7 -3 7 2 0 5 111 8 271 6
l270 -3 -3 146 c-2 90 1 147 7 149 6 3 -111 5 -260 5 -148 0 -275 -3 -282 -7z
m517 -147 l0 -115 -250 0 -250 0 0 115 0 115 250 0 250 0 0 -115z"/>
<path d="M4141 1554 c-191 -41 -331 -187 -388 -404 -23 -90 -23 -283 0 -370
67 -249 231 -397 462 -417 220 -18 410 87 504 279 51 102 71 193 71 323 0 410
-285 668 -649 589z m215 -293 c85 -39 132 -129 141 -272 13 -199 -85 -342
-233 -342 -146 0 -236 121 -236 318 0 143 50 247 141 295 47 25 133 25 187 1z"/>
<path d="M5220 1559 c-129 -23 -232 -94 -282 -197 -30 -60 -33 -75 -33 -157 0
-111 25 -173 94 -238 62 -58 116 -82 261 -118 179 -44 210 -63 210 -128 0
-132 -258 -133 -389 -2 -23 23 -44 41 -49 41 -4 0 -47 -40 -96 -89 l-89 -89
21 -30 c25 -35 111 -102 167 -130 67 -33 145 -52 240 -58 210 -14 392 71 462
214 26 52 28 67 28 167 0 103 -2 113 -29 163 -54 96 -120 134 -320 182 -70 16
-137 35 -149 41 -67 35 -84 84 -47 132 56 71 213 55 311 -31 l34 -30 94 90 93
91 -43 43 c-48 49 -129 95 -209 118 -69 21 -208 28 -280 15z"/>
<path d="M6315 1559 c-209 -30 -371 -186 -426 -409 -20 -80 -18 -289 4 -370
73 -277 293 -438 567 -417 151 12 260 69 350 181 27 35 50 66 50 70 0 3 -54
42 -119 86 l-120 80 -31 -44 c-66 -91 -177 -116 -277 -62 -96 52 -146 154
-145 296 0 136 45 228 137 281 94 54 209 32 276 -52 22 -28 37 -38 48 -34 32
12 221 140 221 150 0 16 -81 110 -125 146 -60 48 -152 87 -230 99 -80 11 -96
11 -180 -1z"/>
<path d="M2690 966 l0 -576 324 0 c287 0 331 2 384 18 149 47 237 161 237 307
-1 116 -55 207 -150 252 l-34 16 54 51 c43 41 57 62 70 110 45 154 -38 319
-187 371 -47 17 -90 20 -375 23 l-323 3 0 -575z m558 299 c36 -30 45 -69 27
-112 -21 -50 -58 -63 -185 -63 l-110 0 0 100 0 100 119 0 c113 0 121 -1 149
-25z m6 -429 c42 -18 66 -51 66 -94 0 -84 -38 -102 -210 -102 l-130 0 0 105 0
105 120 0 c81 0 132 -5 154 -14z"/>
<path d="M6970 965 l0 -575 155 0 155 0 0 225 0 225 170 0 170 0 0 -225 0
-225 155 0 155 0 0 575 0 575 -155 0 -155 0 0 -210 0 -210 -170 0 -170 0 0
210 0 210 -155 0 -155 0 0 -575z"/>
</g>
</svg>
