<?xml version="1.0" standalone="no"?>
<!DOCTYPE svg PUBLIC "-//W3C//DTD SVG 20010904//EN"
 "http://www.w3.org/TR/2001/REC-SVG-20010904/DTD/svg10.dtd">
<svg version="1.0" xmlns="http://www.w3.org/2000/svg"
 width="2000.000000pt" height="488.000000pt" viewBox="0 0 2000.000000 488.000000"
 preserveAspectRatio="xMidYMid meet">
<metadata>
Created by potrace 1.16, written by Peter Selinger 2001-2019
</metadata>
<g transform="translate(0.000000,488.000000) scale(0.100000,-0.100000)"
fill="#000000" stroke="none">
<path d="M1940 4874 c-576 -69 -966 -246 -1305 -595 -175 -180 -258 -300 -371
-534 -182 -377 -264 -781 -264 -1305 0 -328 16 -517 66 -764 197 -978 819
-1543 1829 -1661 177 -21 600 -20 744 0 315 46 690 176 995 346 149 83 411
257 462 307 52 49 71 101 54 142 -13 32 -120 138 -369 365 -267 244 -268 245
-304 245 -41 0 -65 -13 -254 -142 -284 -193 -450 -248 -793 -264 -390 -19
-724 94 -931 313 -161 171 -236 350 -246 584 -6 126 -5 126 18 135 13 4 686
11 1494 14 l1470 5 42 23 c24 12 55 41 70 64 l28 41 3 231 c13 844 -183 1422
-632 1871 -304 304 -672 483 -1151 561 -96 15 -566 28 -655 18z m523 -1028
c332 -100 539 -319 626 -666 16 -63 33 -154 38 -202 l9 -88 -949 0 -949 0 7
68 c39 390 198 662 476 811 160 86 279 111 494 107 138 -3 172 -7 248 -30z"/>
<path d="M14288 4294 c-18 -9 -31 -28 -38 -54 -7 -27 -10 -444 -7 -1352 4
-1421 1 -1341 56 -1501 67 -193 209 -343 393 -416 119 -47 230 -61 499 -61
237 0 238 0 266 24 28 24 28 26 33 162 3 75 3 193 0 262 -5 122 -5 124 -34
147 -25 20 -41 23 -166 27 -122 4 -144 7 -186 29 -27 14 -63 44 -81 67 -67 89
-73 146 -73 805 0 579 2 608 41 633 8 5 110 11 227 14 l214 5 29 33 29 32 0
264 c0 317 4 306 -111 317 -41 4 -154 8 -251 8 l-178 1 0 245 c0 264 -4 286
-51 311 -41 21 -572 20 -611 -2z"/>
<path d="M18790 4297 c-26 -9 -38 -21 -47 -47 -16 -47 -18 -2523 -2 -2650 15
-125 35 -194 85 -299 87 -180 244 -304 459 -363 74 -20 103 -22 373 -23 l294
0 24 28 c24 28 24 29 24 273 0 149 -4 253 -10 265 -22 41 -67 52 -210 54 -103
1 -144 6 -175 19 -85 36 -134 113 -154 237 -7 42 -11 475 -11 1252 0 1298 3
1235 -56 1257 -38 15 -551 12 -594 -3z"/>
<path d="M9410 3850 c-299 -37 -572 -161 -754 -344 -159 -159 -282 -386 -345
-634 -82 -321 -76 -784 16 -1102 162 -564 573 -861 1238 -895 329 -16 660 73
984 266 164 98 241 166 241 214 0 30 -57 91 -235 250 -157 140 -176 155 -195
145 -12 -6 -65 -40 -118 -74 -218 -142 -313 -171 -557 -170 -171 0 -233 12
-355 72 -98 47 -204 150 -248 242 -61 126 -83 278 -43 300 13 7 310 10 893 10
567 0 886 4 910 10 63 18 75 44 84 178 9 140 -8 376 -36 514 -112 542 -486
910 -1020 1002 -114 20 -356 28 -460 16z m334 -630 c163 -42 274 -132 346
-282 41 -84 70 -192 70 -260 l0 -38 -574 0 -575 0 6 38 c12 89 46 210 74 269
69 144 225 259 389 286 69 12 192 6 264 -13z"/>
<path d="M12576 3844 c-165 -30 -327 -97 -476 -199 -77 -52 -83 -55 -96 -38
-13 18 -22 63 -26 138 -3 36 -7 42 -43 60 -37 19 -60 20 -335 20 -265 0 -299
-2 -323 -17 -14 -10 -31 -27 -37 -37 -7 -15 -14 -1753 -10 -2773 0 -14 12 -40
26 -57 l26 -31 328 0 329 0 28 24 28 24 5 919 5 918 23 65 c33 91 64 140 127
199 118 112 308 157 483 116 132 -31 227 -107 288 -230 72 -145 67 -84 74
-1075 5 -942 4 -926 50 -950 26 -14 655 -14 681 0 50 27 49 0 49 1000 0 953
-3 1048 -40 1207 -60 257 -222 472 -451 602 -190 107 -490 155 -713 115z"/>
<path d="M16970 3854 c-140 -17 -249 -39 -338 -69 -484 -162 -780 -564 -852
-1155 -13 -110 -13 -424 1 -548 40 -366 162 -649 368 -852 133 -132 267 -212
461 -274 492 -160 1042 -84 1479 204 124 81 231 168 231 188 0 30 -396 402
-429 402 -9 0 -49 -20 -89 -45 -40 -25 -105 -65 -144 -90 -94 -59 -160 -83
-277 -100 -363 -55 -661 59 -783 299 -36 70 -68 192 -68 256 0 47 1 48 38 55
20 5 264 7 542 6 278 -2 676 1 884 5 l379 7 31 28 31 27 3 158 c8 352 -46 625
-169 852 -183 340 -488 557 -886 627 -86 16 -344 27 -413 19z m262 -625 c29
-6 89 -28 134 -49 155 -74 253 -211 294 -410 11 -52 20 -103 20 -112 0 -17
-34 -18 -576 -18 l-577 0 7 60 c31 276 185 467 422 524 72 17 204 20 276 5z"/>
</g>
</svg>
